<svg version="1.2" xmlns="http://www.w3.org/2000/svg" viewBox="0 0 26 26"><style>.a{fill:none}.b{fill:none;stroke:#000;stroke-linecap:round;stroke-linejoin:round;stroke-width:1.5}</style><path class="a" d="m-5-5h36v36h-36z"/><path class="b" d="m22.8 16.8c-0.7 1.9-2.1 3.6-3.8 4.9-1.8 1.2-3.9 1.8-6 1.8-2.1 0-4.2-0.6-6-1.8-1.7-1.3-3.1-3-3.8-5"/><path class="b" d="m3.2 9.3c0.7-2 2.1-3.7 3.8-5 1.8-1.2 3.9-1.8 6-1.8 2.1 0 4.2 0.6 6 1.8 1.7 1.3 3.1 3 3.8 5"/><path class="b" d="m3.2 9.3l19.6-0.1"/><path class="b" d="m3.2 16.8l19.6-0.1"/><path class="b" d="m1 11.5l1.5 3 1.5-3 1.5 3 1.5-3"/><path class="b" d="m10 11.5l1.5 3 1.5-3 1.5 3 1.5-3"/><path class="b" d="m19 11.5l1.5 3 1.5-3 1.5 3 1.5-3"/><path class="b" d="m17 9.3q-0.2-1-0.6-1.9-0.4-1-0.9-1.8-0.5-0.9-1.1-1.6-0.7-0.8-1.4-1.5-0.7 0.7-1.4 1.4-0.6 0.8-1.1 1.7-0.5 0.8-0.9 1.7-0.4 0.9-0.6 1.9"/><path class="b" d="m9 16.8q0.2 0.9 0.6 1.8 0.4 1 0.9 1.8 0.5 0.9 1.1 1.6 0.7 0.8 1.4 1.5 0.7-0.7 1.4-1.5 0.6-0.7 1.1-1.6 0.5-0.8 0.9-1.8 0.4-0.9 0.6-1.9"/></svg>