<svg version="1.2" xmlns="http://www.w3.org/2000/svg" viewBox="0 0 512 512" width="128" height="128">
	<g id="pizza">
		<path id="Path 0" stroke="#000000" d="m125 1c-0.8 0.5-4.7 2.3-8.5 4.1q-7 3.2-12.5 8.8c-3.1 3.1-7 8.5-8.8 12.1-1.8 3.6-3.9 10-4.7 14.3-0.8 4.2-1.5 10.4-1.5 13.7 0 3.8 0.8 8.1 2.2 11.8 1.4 3.7 3.9 7.4 7 10.4 2.9 2.9 4.8 5.7 4.8 7 0 1.3-3.4 23.7-7.5 49.8-4 26.1-12.6 81-18.9 122-6.4 41-12.5 79.7-13.6 86-1.1 6.3-3.8 23.6-6 38.5-2.2 14.9-4.7 32.2-5.4 38.5-1.2 9.9-1.2 12.2 0 16.5 0.8 2.8 3.2 7.2 5.2 9.9 2.2 2.9 5.9 6.1 9.2 8 4.7 2.6 6.8 3.1 14 3.4l8.5 0.4c70.5-35.1 91.2-45 91.5-44.7 0.3 0.4 0.7 18.5 1 40.3l0.5 39.7c4.7 8.4 7.3 11.8 9 13.1 1.7 1.2 5.3 3.4 8 4.8 3.5 1.8 6.5 2.6 10 2.6 3.1 0 6.8-0.8 9.5-2.1 2.5-1.2 5.8-3.1 7.3-4.3 1.6-1.2 4.3-4.3 6-7.1l3.2-5c1.1-103.1 1.7-134.9 2-137.3 0.4-3.1 1.1-4.5 2.8-5.3 1.2-0.6 3.4-0.8 5-0.5 1.5 0.3 3.3 1.6 4 2.9 0.9 1.6 1.3 11.9 1.7 37.2 0.4 29.7 0.7 35.5 2.1 38 0.9 1.6 3.3 4.5 5.3 6.3 2 1.7 5.3 3.6 7.4 4.2 2 0.5 5.1 1 6.7 0.9 1.6 0 4.5-0.6 6.3-1.2 1.8-0.7 4.9-2.8 6.8-4.7 2-1.9 4.3-4.9 5.2-6.5 1.2-2.4 1.6-9.3 2.2-36 0.5-21.5 1.1-33.8 1.9-35.2 0.6-1.3 5.3-4.6 10.3-7.5 5.1-2.8 31-16.1 57.5-29.5l48.3-24.3c9.7 2.5 14.8 3 17.5 2.8 3.1-0.2 7.5-1.6 11.5-3.7 3.6-1.8 8.9-5.1 11.8-7.2 2.8-2.1 7.3-6.7 9.8-10.1 2.9-4 5.3-8.8 6.6-13.3 1.7-5.7 2-8.8 1.6-16.5-0.4-8-1-10.5-3.6-16-1.7-3.6-6.3-11.4-10.3-17.5-3.9-6-7.4-11.2-7.8-11.5-0.4-0.3-2.9-3.6-5.6-7.5-2.7-3.8-7.4-10.1-10.5-14-3-3.8-9.3-11.5-13.9-17-4.7-5.5-16.6-18.1-26.5-28-10-10-23.3-22.4-29.6-27.6-6.3-5.3-16.2-13.2-22-17.6-5.8-4.4-17.7-12.7-26.5-18.5-8.8-5.7-21.6-13.6-28.5-17.5-6.9-3.9-18-9.8-24.7-13.2-6.8-3.3-18.7-8.8-26.5-12-7.9-3.3-24.4-9.3-36.8-13.4-12.4-4.1-28.8-8.9-36.5-10.7-7.7-1.7-14.8-3.6-15.8-4.1-0.9-0.5-5.2-0.9-9.4-0.8-4.3 0-8.5 0.4-9.3 0.9z"/>
		<path id="Path 1" fill="#ffdd67" d="m126 15.3c-1.9 0.7-5.1 2.2-7 3.4-1.9 1.1-5.2 3.9-7.3 6.2-2 2.3-4.4 5.6-5.3 7.3-0.9 1.8-2.3 6.6-3 10.5-0.8 4-1.4 8.8-1.4 10.5 0 1.8 0.8 5.3 1.9 7.8 1.1 2.5 2.8 5.2 3.8 6.2 1 0.9 8.6 3.7 16.8 6.2 8.3 2.6 21.1 6.6 28.5 9 7.4 2.4 22.3 8.1 33 12.7 10.7 4.6 27.6 12.4 37.5 17.4 9.9 5 23.8 12.7 31 17 7.1 4.3 20.2 12.8 29 18.9 8.8 6.1 22.5 16.3 30.5 22.7 8 6.4 20.4 17 27.5 23.6 7.1 6.7 17.3 16.8 22.6 22.5 5.2 5.6 12.7 14.2 16.5 18.9 3.8 4.8 9 11.3 11.5 14.5 2.5 3.3 7.7 10.6 11.6 16.4 4 5.8 8.2 11.7 9.5 13.1 1.3 1.4 4.1 3.1 6.3 3.7 2.2 0.7 4.9 1.2 6 1.2 1.1 0 5.4-1.6 9.5-3.7 4.1-2 9.1-5.3 11-7.3 2-1.9 4.9-6.2 6.5-9.5 2.3-4.6 3.1-7.8 3.4-13.5 0.4-6.7 0.1-8.2-2.6-14-1.6-3.6-6.5-11.7-10.8-18-4.2-6.3-10.7-15.5-14.4-20.5-3.6-4.9-7.6-10.1-8.7-11.5-1.2-1.4-6.1-7.2-10.9-13-4.8-5.8-14.8-16.7-22.3-24.3-7.6-7.7-19.3-19-26.2-25.2-6.9-6.2-19.1-16.1-27.1-22.1-8.1-6-17.2-12.7-20.3-14.9-3.1-2.2-12.9-8.4-21.8-13.8-9-5.4-22.6-13-30.3-16.9-7.7-3.9-20.5-10-28.5-13.5-8-3.6-23.7-9.6-35-13.3-11.3-3.8-27.7-8.8-36.5-11-8.8-2.3-19.4-4.3-23.5-4.6-4.8-0.3-8.7 0-11 0.9zm-9.4 72c-0.2 0.6-1.1 5-2 9.7-0.8 4.7-3.8 22.9-6.5 40.5-2.8 17.6-6.6 42.6-8.6 55.5-2 12.9-5.4 35-7.6 49-2.2 14-4.4 28.2-5 31.5-0.5 3.3-3.9 25.1-7.5 48.5-3.6 23.4-8 53.1-9.9 66-1.9 12.9-3.9 27.4-4.4 32.3-0.9 6.9-0.8 9.4 0.2 12 0.8 1.7 2.8 4.4 4.5 6 1.8 1.5 5.1 3.2 7.5 3.9 3.9 1 4.8 0.9 11.7-2.2 4.1-1.9 23.9-11.3 44-21.1 20.1-9.7 38.8-18.7 41.5-19.9 3.6-1.6 6.1-2 8.8-1.6 2 0.3 5.3 2 7.2 3.6l3.5 3 0.5 83.6c3.9 5.7 6.6 8.1 8.5 9 2.4 1.1 4.6 1.4 7 0.9 1.9-0.4 4.7-1.3 6.3-2.1 1.5-0.8 3.2-2.4 3.9-3.6 0.8-1.7 1.4-19.2 1.9-61.8 0.4-32.7 0.9-64.3 1.1-70.1 0.3-9.3 0.6-11 2.9-14.5 1.5-2.3 4.4-4.8 7-6.1 2.9-1.5 6.2-2.3 9.7-2.3 3.1 0 6.7 0.7 9 1.9 2 1 4.4 2.7 5.3 3.7 0.9 1.1 2.5 3.5 3.5 5.4 1.6 3.2 1.8 6.9 2.1 39.3l0.3 35.7c5 3.1 7.2 4 8 4 0.8 0 2.9-1.1 4.5-2.4l3-2.3c1.1-62.4 1.4-68.4 2.8-71.3 0.9-1.9 3.1-4.9 4.9-6.6 1.8-1.8 14.1-8.7 27.3-15.6 13.2-6.8 37.9-19.3 54.8-27.8 22.6-11.4 30.7-15.9 30.4-17-0.2-0.8-3.8-6.4-8-12.5-4.2-6.1-10.9-15.1-14.9-20.1-4-5.1-12-14.5-17.8-20.9-5.8-6.5-16.4-17.3-23.5-24-7.1-6.6-17.5-15.9-23-20.5-5.5-4.5-15.5-12.4-22.2-17.4-6.8-5-19.2-13.5-27.5-18.8-8.4-5.3-21.6-13.2-29.3-17.4-7.7-4.3-18.7-10.2-24.5-13.1-5.8-3-17.2-8.3-25.5-11.8-8.2-3.5-19.7-7.9-25.5-9.9-5.8-1.9-16.6-5.3-24-7.6-7.4-2.2-14.1-4-14.8-4-0.7 0-1.4 0.6-1.6 1.3z"/>
	</g>
	<g id="face">
		<path id="Layer" fill="#ffffff" d="m105.1 268.3c-30.5 0-55.1-24.7-55.1-55.2 0-30.5 24.6-55.1 55.1-55.1 30.5 0 55.2 24.6 55.2 55.1 0 30.5-24.7 55.2-55.2 55.2z"/>
		<path id="Layer" stroke="#000000" d="m105.1 238.2c-13.8 0-25-11.2-25-25.1 0-13.8 11.2-25 25-25 13.9 0 25.1 11.2 25.1 25 0 13.9-11.2 25.1-25.1 25.1z"/>
		<path id="Layer" fill="#ffffff" d="m235.5 268.3c-30.5 0-55.2-24.7-55.2-55.2 0-30.5 24.7-55.1 55.2-55.1 30.5 0 55.1 24.6 55.1 55.1 0 30.5-24.6 55.2-55.1 55.2z"/>
		<path id="Layer" stroke="#000000" d="m235.5 238.2c-13.9 0-25.1-11.2-25.1-25.1 0-13.8 11.2-25 25.1-25 13.8 0 25 11.2 25 25 0 13.9-11.2 25.1-25 25.1z"/>
		<path id="Layer" stroke="#000000" d="m170.3 358.5c-24.9 0-45.1-20.1-45.1-45.1 0-24.9 20.2-45.1 45.1-45.1 25 0 45.1 20.2 45.1 45.1 0 25-20.1 45.1-45.1 45.1z"/>
		<path id="Layer" fill="#ffffff" d="m140.2 298.4c6.1-12.1 17.1-20.1 30.1-20.1 13 0 24.1 8 30.1 20.1z"/>
	</g>
</svg>